<svg width="656" height="52" viewBox="0 0 656 52" fill="none" xmlns="http://www.w3.org/2000/svg">
<rect width="656" height="52" rx="8" fill="#4A5BF6"/>
<path d="M325.416 17.6738V23.7031H327.859V25.3027H325.416V33.582H323.465V17.6738H325.416ZM313.621 29.6973V19.1855H321.057V20.7676H315.572V28.0625C318.042 28.0537 320.002 27.9307 322.182 27.5527L322.41 29.2051C319.94 29.627 317.805 29.6973 314.939 29.6973H313.621ZM335.752 17.9902C339.268 17.9902 341.474 19.1416 341.482 21.084C341.474 22.9824 339.268 24.1162 335.752 24.1074C332.271 24.1162 330.021 22.9824 330.021 21.084C330.021 19.1416 332.271 17.9902 335.752 17.9902ZM328.527 26.7617V25.1797H343.012V26.7617H328.527ZM330.232 33.3711V28.0273H341.254V33.3711H330.232ZM332.061 21.084C332.043 22.042 333.432 22.5869 335.752 22.5957C338.072 22.5869 339.461 22.042 339.461 21.084C339.461 20.0732 338.072 19.5195 335.752 19.5195C333.432 19.5195 332.043 20.0732 332.061 21.084ZM332.166 31.7891H339.355V29.5742H332.166V31.7891Z" fill="white"/>
</svg>
