<svg width="1920" height="332" viewBox="0 0 1920 332" fill="none" xmlns="http://www.w3.org/2000/svg">
<g clip-path="url(#clip0_978_748)">
<path d="M1920 0H0V332H1920V0Z" fill="#F8F9FA"/>
<path d="M771.094 48.8906C771.078 51.3672 772.523 53.9062 774.609 54.9219L773.688 56.1094C772.164 55.3125 770.984 53.75 770.367 51.8828C769.742 53.8672 768.516 55.5469 766.922 56.375L766 55.1719C768.148 54.1406 769.602 51.4531 769.609 48.8906V46.5H771.094V48.8906ZM775.656 59.3281V45.3281H777.141V50.9062H779.391V52.1719H777.141V59.3281H775.656Z" fill="#141618"/>
<path d="M763.984 45.3281V59.3281H762.5V45.3281H763.984ZM752.484 55.5156C753.641 55.5078 754.953 55.5 756.328 55.4688V54.0625C754.695 53.8438 753.633 52.8828 753.641 51.5156C753.633 49.9375 755.008 48.8984 757.031 48.8906C759.078 48.8984 760.477 49.9375 760.484 51.5156C760.477 52.8672 759.422 53.8203 757.797 54.0547V55.4141C759.094 55.3516 760.406 55.2578 761.641 55.0938L761.75 56.2031C758.641 56.7188 755.25 56.7578 752.688 56.75L752.484 55.5156ZM752.781 48.1875V47H756.328V45.3594H757.812V47H761.328V48.1875H752.781ZM755.047 51.5156C755.031 52.4062 755.859 52.9609 757.031 52.9531C758.242 52.9609 759.062 52.4062 759.062 51.5156C759.062 50.6172 758.242 50.0469 757.031 50.0469C755.859 50.0469 755.031 50.6172 755.047 51.5156Z" fill="#141618"/>
<path d="M743.672 47.3438C743.664 49.2812 744.977 51.0547 747.141 51.7656L746.391 52.9375C744.766 52.375 743.555 51.2344 742.922 49.7734C742.297 51.3359 741.062 52.5781 739.406 53.1719L738.656 52.0156C740.836 51.2422 742.148 49.3438 742.156 47.3438V46H743.672V47.3438ZM740.703 55.6094V54.4062H750.188V59.3281H748.703V55.6094H740.703ZM748.703 53.7344V45.3281H750.188V53.7344H748.703Z" fill="#141618"/>
<path d="M737.516 53.2188V54.422H731.828V59.3125H730.375V54.422H724.75V53.2188H737.516ZM725.469 50.9845C728.078 50.6251 730.25 49.0703 730.297 47.3438H725.938V46.1562H736.312V47.3438H731.984C732.008 49.0703 734.164 50.6251 736.812 50.9845L736.266 52.1562C733.969 51.7969 731.984 50.6642 731.133 49.0704C730.273 50.6642 728.297 51.7969 726.031 52.1562L725.469 50.9845Z" fill="#141618"/>
<path d="M714.547 46.3438V47.5312H709.312V49.078H714.156V50.25H709.312V51.8438C712.109 51.8594 713.742 51.8125 715.641 51.4844L715.797 52.6875C713.773 53.0156 712.031 53.0703 708.969 53.0625H707.812V46.3438H714.547ZM709.172 56.7188C709.172 55.0858 710.961 54.1405 713.938 54.1405C716.867 54.1405 718.695 55.0858 718.703 56.7188C718.695 58.3672 716.867 59.3047 713.938 59.2969C710.961 59.3047 709.172 58.3672 709.172 56.7188ZM710.656 56.7188C710.648 57.6327 711.852 58.1484 713.938 58.1562C715.984 58.1484 717.227 57.6327 717.219 56.7188C717.227 55.828 715.984 55.3047 713.938 55.3125C711.852 55.3047 710.648 55.828 710.656 56.7188ZM717.141 53.953V45.3438H718.625V53.953H717.141Z" fill="#141618"/>
<path d="M704.859 45.3281V52.5312H703.375V48.9375H700.422V47.7344H703.375V45.3281H704.859ZM693.141 51.4062C695.328 50.7109 696.633 48.9688 696.641 47V45.7812H698.109V47C698.109 48.7812 699.391 50.4375 701.5 51.1094L700.719 52.2656C699.18 51.7344 698.016 50.6797 697.398 49.3438C696.789 50.8516 695.594 52.0234 693.938 52.5938L693.141 51.4062ZM695.703 54.3594V53.1875H704.859V56.6719H697.188V57.9688H705.344V59.1562H695.734V55.5469H703.391V54.3594H695.703Z" fill="#141618"/>
<path d="M686.672 46.4375C686.664 50.1484 684.859 52.8438 680.281 54.3594L679.688 53.1875C681.969 52.4453 683.414 51.4374 684.234 50.203L679.875 50.5625L679.641 49.3594L684.781 49.1405C684.953 48.664 685.062 48.164 685.109 47.6405H680.344V46.4375H686.672ZM682.062 59.0312V54.6875H683.562V57.828H691.422V59.0312H682.062ZM686.625 50.9375V49.7188H689.547V45.3438H691.031V55.703H689.547V50.9375H686.625Z" fill="#141618"/>
<path d="M667.359 46.9844V48.1719H663.547V50.75H666.734V51.9062H663.547V54.8438C665.375 54.8203 666.57 54.75 668.016 54.4844L668.141 55.6875C666.531 56.0156 665.203 56.0391 663.031 56.0469H662.125V46.9844H667.359ZM667.469 51.7812V50.5781H669.359V45.625H670.766V58.625H669.359V51.7812H667.469ZM672.219 59.3281V45.3281H673.656V59.3281H672.219Z" fill="#141618"/>
<path d="M659.094 46.625V47.9375C659.086 49.6406 659.102 51.5781 658.5 54.4844L657.047 54.3281C657.305 53.1328 657.445 52.0781 657.531 51.1328L649.109 51.625L648.891 50.3438L657.602 50C657.633 49.2422 657.641 48.5703 657.641 47.9375V47.8438H649.312V46.625H659.094ZM647.797 57.5156V56.2812H652.656V52.7344H654.125V56.2812H660.562V57.5156H647.797Z" fill="#141618"/>
<path d="M637.719 46.375C639.812 46.3828 641.305 48.2891 641.312 51.2812C641.305 54.3047 639.812 56.2109 637.719 56.2031C635.625 56.2109 634.133 54.3047 634.141 51.2812C634.133 48.2891 635.625 46.3828 637.719 46.375ZM635.562 51.2812C635.555 53.5078 636.445 54.875 637.719 54.875C639.016 54.875 639.891 53.5078 639.891 51.2812C639.891 49.0859 639.016 47.7109 637.719 47.7031C636.445 47.7109 635.555 49.0859 635.562 51.2812ZM643.391 59.3281V45.3281H644.875V50.8125H647.125V52.0625H644.875V59.3281H643.391Z" fill="#141618"/>
<path d="M873.961 79.1504C872.17 79.1436 870.857 77.7012 870.857 75.3086C870.857 72.8887 872.19 71.4805 873.975 71.4805C875.355 71.4805 875.854 72.3145 876.121 72.7793H876.189V69.1016H877.652V79H876.23V77.8379H876.121C875.848 78.3232 875.314 79.1436 873.961 79.1504ZM872.348 75.2812C872.341 76.7715 873.011 77.8994 874.289 77.9062C875.533 77.8994 876.23 76.8398 876.23 75.2812C876.23 73.7363 875.547 72.7178 874.289 72.7246C872.997 72.7178 872.341 73.8184 872.348 75.2812Z" fill="#141618"/>
<path d="M866.537 79.1504C864.35 79.1504 863.003 77.6396 863.01 75.3359C863.003 73.0527 864.37 71.4805 866.441 71.4805C868.13 71.4805 869.736 72.5264 869.736 75.2129V75.7324H864.459C864.5 77.1475 865.334 77.9473 866.551 77.9473C867.378 77.9473 867.918 77.5918 868.164 77.1406H869.641C869.312 78.3438 868.171 79.1504 866.537 79.1504ZM864.466 74.6387H868.301C868.301 73.5107 867.569 72.6768 866.455 72.6836C865.286 72.6768 864.527 73.5928 864.466 74.6387Z" fill="#141618"/>
<path d="M862.408 71.5762L859.715 79H858.143L855.449 71.5762H857.021L858.895 77.2773H858.963L860.836 71.5762H862.408Z" fill="#141618"/>
<path d="M850.719 79V71.5762H852.127V72.752H852.209C852.482 71.959 853.228 71.46 854.096 71.4668C854.273 71.46 854.561 71.4805 854.711 71.4942V72.8887C854.588 72.8613 854.246 72.7998 853.945 72.8067C852.934 72.7998 852.182 73.5039 852.182 74.4746V79H850.719Z" fill="#141618"/>
<path d="M846.07 79.1504C843.883 79.1504 842.536 77.6396 842.543 75.3359C842.536 73.0527 843.903 71.4805 845.975 71.4805C847.663 71.4805 849.27 72.5264 849.27 75.2129V75.7324H843.992C844.033 77.1475 844.867 77.9473 846.084 77.9473C846.911 77.9473 847.451 77.5918 847.697 77.1406H849.174C848.846 78.3438 847.704 79.1504 846.07 79.1504ZM843.999 74.6387H847.834C847.834 73.5107 847.103 72.6768 845.988 72.6836C844.819 72.6768 844.061 73.5928 843.999 74.6387Z" fill="#141618"/>
<path d="M839.904 73.5996C839.768 73.0117 839.303 72.6289 838.496 72.6289C837.662 72.6289 837.067 73.0596 837.074 73.627C837.067 74.0645 837.416 74.3789 838.236 74.5703L839.412 74.8438C840.779 75.1514 841.442 75.8008 841.449 76.8535C841.442 78.1934 840.308 79.1504 838.414 79.1504C836.63 79.1504 835.577 78.3574 835.393 76.9766H836.883C837.013 77.6465 837.519 77.9814 838.4 77.9746C839.344 77.9814 839.952 77.585 839.959 76.9629C839.952 76.4844 839.597 76.1768 838.811 75.9922L837.648 75.7461C836.309 75.4521 835.611 74.7344 835.611 73.709C835.611 72.3896 836.76 71.4805 838.482 71.4805C840.137 71.4805 841.169 72.3213 841.312 73.5996H839.904Z" fill="#141618"/>
<path d="M831.086 79.1504C828.898 79.1504 827.552 77.6396 827.559 75.3359C827.552 73.0527 828.919 71.4805 830.99 71.4805C832.679 71.4805 834.285 72.5264 834.285 75.2129V75.7324H829.008C829.049 77.1475 829.883 77.9473 831.1 77.9473C831.927 77.9473 832.467 77.5918 832.713 77.1406H834.189C833.861 78.3438 832.72 79.1504 831.086 79.1504ZM829.015 74.6387H832.85C832.85 73.5107 832.118 72.6768 831.004 72.6836C829.835 72.6768 829.076 73.5928 829.015 74.6387Z" fill="#141618"/>
<path d="M819.479 79V69.1016H823.006C825.31 69.1016 826.438 70.3799 826.438 72.2051C826.438 73.5381 825.836 74.543 824.633 75.001L826.82 79H825.111L823.102 75.2676H823.006H820.982V79H819.479ZM820.982 73.9688H822.855C824.312 73.9619 824.92 73.3193 824.92 72.2051C824.92 71.0908 824.312 70.3936 822.855 70.3867H820.982V73.9688Z" fill="#141618"/>
<path d="M812.971 73.5996C812.834 73.0117 812.369 72.6289 811.562 72.6289C810.729 72.6289 810.134 73.0596 810.141 73.627C810.134 74.0645 810.482 74.3789 811.303 74.5703L812.479 74.8438C813.846 75.1514 814.509 75.8008 814.516 76.8535C814.509 78.1934 813.374 79.1504 811.48 79.1504C809.696 79.1504 808.644 78.3574 808.459 76.9766H809.949C810.079 77.6465 810.585 77.9814 811.467 77.9746C812.41 77.9814 813.019 77.585 813.025 76.9629C813.019 76.4844 812.663 76.1768 811.877 75.9922L810.715 75.7461C809.375 75.4521 808.678 74.7344 808.678 73.709C808.678 72.3896 809.826 71.4805 811.549 71.4805C813.203 71.4805 814.235 72.3213 814.379 73.5996H812.971Z" fill="#141618"/>
<path d="M807.502 71.5762V72.7383H805.984V76.8125C805.991 77.6533 806.401 77.8037 806.873 77.8105C807.085 77.8105 807.406 77.79 807.611 77.7695V79.041C807.413 79.0684 807.099 79.0957 806.695 79.0957C805.554 79.0957 804.521 78.4668 804.535 77.1133V72.7383H803.441V71.5762H804.535V69.7988H805.984V71.5762H807.502Z" fill="#141618"/>
<path d="M797.453 74.5977V79H795.99V69.1016H797.426V72.793H797.521C797.87 71.9863 798.567 71.4805 799.723 71.4805C801.247 71.4805 802.266 72.4238 802.266 74.2832V79H800.803V74.4609C800.803 73.3672 800.215 72.7383 799.23 72.7383C798.198 72.7383 797.453 73.415 797.453 74.5977Z" fill="#141618"/>
<path d="M790.863 81.9395C788.99 81.9395 787.753 81.1123 787.623 79.7246H789.113C789.257 80.4287 789.913 80.7705 790.877 80.7637C792.039 80.7705 792.771 80.2646 792.777 79.1094V77.6465H792.682C792.422 78.125 791.889 78.8906 790.521 78.8906C788.771 78.8906 787.418 77.585 787.418 75.2129C787.418 72.8408 788.751 71.4805 790.535 71.4805C791.916 71.4805 792.422 72.3145 792.695 72.7793H792.791V71.5762H794.213V79.1641C794.22 81.0713 792.777 81.9395 790.863 81.9395ZM788.908 75.2402C788.901 76.6963 789.571 77.6807 790.85 77.6875C792.094 77.6807 792.791 76.7715 792.791 75.2402C792.791 73.7363 792.107 72.7178 790.85 72.7246C789.558 72.7178 788.901 73.8184 788.908 75.2402Z" fill="#141618"/>
<path d="M784.506 79V71.5762H785.969V79H784.506ZM784.314 69.5664C784.321 69.0879 784.738 68.7051 785.244 68.7051C785.743 68.7051 786.16 69.0879 786.16 69.5664C786.16 70.0449 785.743 70.4346 785.244 70.4277C784.738 70.4346 784.321 70.0449 784.314 69.5664Z" fill="#141618"/>
<path d="M776.002 79V69.1016H779.529C781.833 69.1016 782.961 70.3799 782.961 72.2051C782.961 73.5381 782.359 74.543 781.156 75.001L783.344 79H781.635L779.625 75.2676H779.529H777.506V79H776.002ZM777.506 73.9688H779.379C780.835 73.9619 781.443 73.3193 781.443 72.2051C781.443 71.0908 780.835 70.3936 779.379 70.3867H777.506V73.9688Z" fill="#141618"/>
<path d="M770.684 69.1016V79H769.221V69.1016H770.684Z" fill="#141618"/>
<path d="M767.443 69.1016V79H765.98V69.1016H767.443Z" fill="#141618"/>
<path d="M757.586 79H755.986L759.541 69.1016H761.277L764.846 79H763.246L762.344 76.3887H758.488L757.586 79ZM758.919 75.1309H761.906L760.443 70.9062H760.375L758.919 75.1309Z" fill="#141618"/>
<path d="M750.627 79.0957C750.094 79.0889 749.649 78.6582 749.656 78.125C749.649 77.5918 750.094 77.1543 750.627 77.1543C751.153 77.1543 751.591 77.5918 751.598 78.125C751.591 78.6582 751.153 79.0889 750.627 79.0957Z" fill="#141618"/>
<path d="M745.021 79.1504C742.834 79.1504 741.487 77.6396 741.494 75.3359C741.487 73.0527 742.854 71.4805 744.926 71.4805C746.614 71.4805 748.221 72.5264 748.221 75.2129V75.7324H742.943C742.984 77.1475 743.818 77.9473 745.035 77.9473C745.862 77.9473 746.402 77.5918 746.648 77.1406H748.125C747.797 78.3438 746.655 79.1504 745.021 79.1504ZM742.95 74.6387H746.785C746.785 73.5107 746.054 72.6768 744.939 72.6836C743.771 72.6768 743.012 73.5928 742.95 74.6387Z" fill="#141618"/>
<path d="M740.482 71.5762V72.7383H738.965V76.8125C738.972 77.6533 739.382 77.8037 739.854 77.8105C740.065 77.8105 740.387 77.79 740.592 77.7695V79.041C740.394 79.0684 740.079 79.0957 739.676 79.0957C738.534 79.0957 737.502 78.4668 737.516 77.1133V72.7383H736.422V71.5762H737.516V69.7988H738.965V71.5762H740.482Z" fill="#141618"/>
<path d="M732.115 79.1504C730.01 79.1504 728.636 77.6191 728.643 75.3223C728.636 73.0117 730.01 71.4805 732.115 71.4805C734.207 71.4805 735.574 73.0117 735.574 75.3223C735.574 77.6191 734.207 79.1504 732.115 79.1504ZM730.105 75.3223C730.105 76.7373 730.755 77.9336 732.115 77.9336C733.455 77.9336 734.098 76.7373 734.098 75.3223C734.098 73.9004 733.455 72.6904 732.115 72.6836C730.755 72.6904 730.105 73.9004 730.105 75.3223Z" fill="#141618"/>
<path d="M724.541 79.1504C722.374 79.1504 721.062 77.5576 721.068 75.3223C721.062 73.0596 722.422 71.4805 724.514 71.4805C726.209 71.4805 727.433 72.4785 727.59 73.9824H726.168C726.018 73.2852 725.464 72.7041 724.541 72.6973C723.338 72.7041 722.531 73.7021 722.531 75.2812C722.531 76.9082 723.317 77.9131 724.541 77.9062C725.368 77.9131 725.983 77.4482 726.168 76.6484H727.59C727.433 78.0908 726.291 79.1504 724.541 79.1504Z" fill="#141618"/>
<path d="M713.125 79H711.525L715.08 69.1016H716.816L720.385 79H718.785L717.883 76.3887H714.027L713.125 79ZM714.458 75.1309H717.445L715.982 70.9062H715.914L714.458 75.1309Z" fill="#141618"/>
<path d="M699.289 74.0508C699.282 72.4922 700.54 71.2344 702.105 71.2344C703.459 71.2344 704.601 72.1914 704.771 73.4629H703.5C703.384 72.8682 702.782 72.4444 702.105 72.4375C701.217 72.4444 700.492 73.1553 700.492 74.0508C700.492 74.9395 701.217 75.6572 702.105 75.6641C702.782 75.6572 703.309 75.2334 703.432 74.6387H704.689C704.519 75.9033 703.459 76.8672 702.105 76.8672C700.54 76.8672 699.282 75.6094 699.289 74.0508ZM696.951 74.0508C696.965 71.2276 699.255 68.9444 702.064 68.9512C704.888 68.9444 707.15 71.2276 707.164 74.0508C707.171 76.8672 704.888 79.1572 702.064 79.1504C699.255 79.1572 696.944 76.8672 696.951 74.0508ZM698.25 74.0508C698.236 76.1426 699.952 77.8652 702.064 77.8652C704.17 77.8652 705.879 76.1563 705.879 74.0508C705.865 71.9385 704.163 70.2363 702.064 70.2363C699.966 70.2363 698.25 71.9453 698.25 74.0508Z" fill="#141618"/>
<path d="M695.734 71.5762V72.7383H694.217V76.8125C694.224 77.6533 694.634 77.8037 695.105 77.8105C695.317 77.8105 695.639 77.79 695.844 77.7695V79.041C695.646 79.0684 695.331 79.0957 694.928 79.0957C693.786 79.0957 692.754 78.4668 692.768 77.1133V72.7383H691.674V71.5762H692.768V69.7988H694.217V71.5762H695.734Z" fill="#141618"/>
<path d="M685.686 74.5977V79H684.223V69.1016H685.658V72.793H685.754C686.103 71.9863 686.8 71.4805 687.955 71.4805C689.479 71.4805 690.498 72.4238 690.498 74.2832V79H689.035V74.4609C689.035 73.3672 688.447 72.7383 687.463 72.7383C686.431 72.7383 685.686 73.415 685.686 74.5977Z" fill="#141618"/>
<path d="M679.096 81.9395C677.223 81.9395 675.985 81.1123 675.855 79.7246H677.346C677.489 80.4287 678.146 80.7705 679.109 80.7637C680.271 80.7705 681.003 80.2646 681.01 79.1094V77.6465H680.914C680.654 78.125 680.121 78.8906 678.754 78.8906C677.004 78.8906 675.65 77.585 675.65 75.2129C675.65 72.8408 676.983 71.4805 678.768 71.4805C680.148 71.4805 680.654 72.3145 680.928 72.7793H681.023V71.5762H682.445V79.1641C682.452 81.0713 681.01 81.9395 679.096 81.9395ZM677.141 75.2402C677.134 76.6963 677.804 77.6807 679.082 77.6875C680.326 77.6807 681.023 76.7715 681.023 75.2402C681.023 73.7363 680.34 72.7178 679.082 72.7246C677.79 72.7178 677.134 73.8184 677.141 75.2402Z" fill="#141618"/>
<path d="M672.738 79V71.5762H674.201V79H672.738ZM672.547 69.5664C672.554 69.0879 672.971 68.7051 673.477 68.7051C673.976 68.7051 674.393 69.0879 674.393 69.5664C674.393 70.0449 673.976 70.4346 673.477 70.4277C672.971 70.4346 672.554 70.0449 672.547 69.5664Z" fill="#141618"/>
<path d="M667.652 79V71.5762H669.061V72.752H669.143C669.416 71.959 670.161 71.46 671.029 71.4668C671.207 71.46 671.494 71.4805 671.645 71.4942V72.8887C671.521 72.8613 671.18 72.7998 670.879 72.8067C669.867 72.7998 669.115 73.5039 669.115 74.4746V79H667.652Z" fill="#141618"/>
<path d="M660.994 81.7891C660.693 81.7822 660.399 81.7754 660.215 81.748V80.5312C660.379 80.5449 660.666 80.5518 660.871 80.5586C661.322 80.5518 661.698 80.5244 662.047 79.5879L662.225 79.0957L659.504 71.5762H661.062L662.936 77.332H663.018L664.891 71.5762H666.463L663.4 79.9844C662.97 81.1602 662.218 81.7822 660.994 81.7891Z" fill="#141618"/>
<path d="M652.107 81.7891V71.5762H653.529V72.7793H653.652C653.912 72.3145 654.411 71.4805 655.785 71.4805C657.583 71.4805 658.902 72.8887 658.902 75.3086C658.902 77.7012 657.597 79.1436 655.799 79.1504C654.452 79.1436 653.919 78.3232 653.652 77.8379H653.57V81.7891H652.107ZM653.543 75.2812C653.543 76.8398 654.227 77.8994 655.471 77.9062C656.756 77.8994 657.426 76.7715 657.426 75.2812C657.426 73.8184 656.776 72.7178 655.471 72.7246C654.213 72.7178 653.543 73.7363 653.543 75.2812Z" fill="#141618"/>
<path d="M647.213 79.1504C645.107 79.1504 643.733 77.6191 643.74 75.3223C643.733 73.0117 645.107 71.4805 647.213 71.4805C649.305 71.4805 650.672 73.0117 650.672 75.3223C650.672 77.6191 649.305 79.1504 647.213 79.1504ZM645.203 75.3223C645.203 76.7373 645.853 77.9336 647.213 77.9336C648.553 77.9336 649.195 76.7373 649.195 75.3223C649.195 73.9004 648.553 72.6904 647.213 72.6836C645.853 72.6904 645.203 73.9004 645.203 75.3223Z" fill="#141618"/>
<path d="M641.047 72.3281C640.808 71.0498 639.748 70.3389 638.49 70.3457C636.781 70.3389 635.517 71.6514 635.51 74.0508C635.517 76.4639 636.788 77.7627 638.49 77.7559C639.734 77.7627 640.787 77.0654 641.047 75.8008L642.564 75.8145C642.25 77.7695 640.657 79.1367 638.477 79.1367C635.899 79.1367 634.02 77.2158 634.02 74.0508C634.02 70.8857 635.913 68.9648 638.477 68.9648C640.568 68.9648 642.229 70.2021 642.564 72.3281H641.047Z" fill="#141618"/>
<path d="M819.811 109.137C818.095 109.116 816.201 108.098 816.201 104.434C816.201 100.927 817.637 98.9648 819.961 98.9648C821.704 98.9648 822.921 100.038 823.174 101.59H821.957C821.731 100.715 821.062 100.059 819.961 100.059C818.334 100.059 817.356 101.446 817.363 103.832H817.486C818.054 103.005 818.963 102.52 820.029 102.52C821.786 102.52 823.256 103.887 823.256 105.801C823.256 107.667 821.896 109.157 819.811 109.137ZM817.527 105.828C817.534 106.99 818.484 108.05 819.811 108.057C821.089 108.05 822.06 107.045 822.066 105.814C822.06 104.598 821.13 103.606 819.838 103.6C818.539 103.606 817.541 104.659 817.527 105.828Z" fill="#91979D"/>
<path d="M811.074 98.9649C812.776 98.9854 814.67 100.011 814.67 103.654C814.67 107.175 813.228 109.137 810.91 109.137C809.167 109.137 807.943 108.07 807.697 106.498H808.914C809.133 107.387 809.81 108.043 810.91 108.043C812.523 108.043 813.508 106.648 813.521 104.242H813.385C812.817 105.063 811.908 105.555 810.855 105.555C809.085 105.555 807.615 104.194 807.615 102.287C807.615 100.441 808.969 98.9444 811.074 98.9649ZM808.818 102.273C808.812 103.497 809.741 104.475 811.033 104.475C812.325 104.475 813.33 103.408 813.33 102.246C813.33 101.111 812.38 100.045 811.074 100.045C809.782 100.045 808.805 101.05 808.818 102.273Z" fill="#91979D"/>
<path d="M798.797 106.977V105.965L803.254 99.1016H804.771V105.896H806.152V106.977H804.771V109H803.596V106.977H798.797ZM800.123 105.896H803.596V100.66H803.473L800.123 105.814V105.896Z" fill="#91979D"/>
<path d="M791.045 109L791.031 108.098L794.408 104.543C795.577 103.299 796.138 102.629 796.145 101.713C796.138 100.694 795.29 100.038 794.176 100.031C792.993 100.038 792.255 100.783 792.248 101.891H791.086C791.072 100.141 792.426 98.9648 794.217 98.9648C796.015 98.9648 797.286 100.175 797.293 101.713C797.286 102.82 796.773 103.682 795.023 105.486L792.754 107.824V107.906H797.471V109H791.045Z" fill="#91979D"/>
<path d="M785.945 109.137C783.751 109.137 782.479 107.291 782.486 104.051C782.479 100.838 783.765 98.9648 785.945 98.9648C788.119 98.9648 789.404 100.838 789.404 104.051C789.404 107.291 788.14 109.137 785.945 109.137ZM783.676 104.051C783.683 106.614 784.51 108.043 785.945 108.043C787.374 108.043 788.208 106.614 788.201 104.051C788.208 101.487 787.367 100.038 785.945 100.031C784.523 100.038 783.683 101.487 783.676 104.051Z" fill="#91979D"/>
<path d="M780.914 104.229V105.309H776.58V104.229H780.914Z" fill="#91979D"/>
<path d="M771.508 109.137C769.792 109.116 767.898 108.098 767.898 104.434C767.898 100.927 769.334 98.9648 771.658 98.9648C773.401 98.9648 774.618 100.038 774.871 101.59H773.654C773.429 100.715 772.759 100.059 771.658 100.059C770.031 100.059 769.054 101.446 769.061 103.832H769.184C769.751 103.005 770.66 102.52 771.727 102.52C773.483 102.52 774.953 103.887 774.953 105.801C774.953 107.667 773.593 109.157 771.508 109.137ZM769.225 105.828C769.231 106.99 770.182 108.05 771.508 108.057C772.786 108.05 773.757 107.045 773.764 105.814C773.757 104.598 772.827 103.606 771.535 103.6C770.236 103.606 769.238 104.659 769.225 105.828Z" fill="#91979D"/>
<path d="M762.881 109.137C760.796 109.137 759.36 107.981 759.367 106.375C759.36 105.097 760.249 104.037 761.377 103.859V103.805C760.393 103.579 759.743 102.67 759.75 101.59C759.743 100.079 761.069 98.9648 762.881 98.9648C764.686 98.9648 766.012 100.079 766.025 101.59C766.012 102.67 765.355 103.579 764.385 103.805V103.859C765.506 104.037 766.395 105.097 766.408 106.375C766.395 107.981 764.945 109.137 762.881 109.137ZM760.598 106.307C760.577 107.346 761.459 108.05 762.881 108.057C764.296 108.05 765.178 107.346 765.178 106.307C765.178 105.213 764.214 104.406 762.881 104.406C761.555 104.406 760.577 105.213 760.598 106.307ZM760.939 101.686C760.946 102.684 761.746 103.36 762.881 103.367C764.009 103.36 764.822 102.684 764.822 101.686C764.822 100.694 764.036 100.024 762.881 100.031C761.705 100.024 760.946 100.694 760.939 101.686Z" fill="#91979D"/>
<path d="M757.781 104.229V105.309H753.447V104.229H757.781Z" fill="#91979D"/>
<path d="M744.533 106.977V105.965L748.99 99.1016H750.508V105.896H751.889V106.977H750.508V109H749.332V106.977H744.533ZM745.859 105.896H749.332V100.66H749.209L745.859 105.814V105.896Z" fill="#91979D"/>
<path d="M739.652 109.137C737.868 109.137 736.515 108.036 736.439 106.512H737.629C737.718 107.394 738.579 108.05 739.652 108.057C740.938 108.05 741.867 107.113 741.867 105.869C741.867 104.584 740.903 103.634 739.57 103.627C738.736 103.613 738.087 103.873 737.725 104.516H736.535L737.232 99.1016H742.592V100.195H738.258L737.889 103.094H737.984C738.429 102.752 739.092 102.52 739.789 102.52C741.676 102.52 743.063 103.914 743.07 105.842C743.063 107.756 741.628 109.137 739.652 109.137Z" fill="#91979D"/>
<path d="M728.209 109L728.195 108.098L731.572 104.543C732.741 103.299 733.302 102.629 733.309 101.713C733.302 100.694 732.454 100.038 731.34 100.031C730.157 100.038 729.419 100.783 729.412 101.891H728.25C728.236 100.141 729.59 98.9648 731.381 98.9648C733.179 98.9648 734.45 100.175 734.457 101.713C734.45 102.82 733.938 103.682 732.188 105.486L729.918 107.824V107.906H734.635V109H728.209Z" fill="#91979D"/>
<path d="M721.988 109.082C721.51 109.075 721.1 108.679 721.113 108.193C721.1 107.715 721.51 107.318 721.988 107.318C722.474 107.318 722.87 107.715 722.863 108.193C722.87 108.679 722.474 109.075 721.988 109.082ZM721.113 102.697C721.1 102.219 721.51 101.822 721.988 101.822C722.474 101.822 722.87 102.219 722.863 102.697C722.87 103.183 722.474 103.579 721.988 103.586C721.51 103.579 721.1 103.183 721.113 102.697Z" fill="#91979D"/>
<path d="M715.59 99.7578V100.646H705.637V99.7578H710.094V98.1582H711.146V99.7578H715.59ZM705.09 108.686V107.797H710.094V106.088C707.927 105.972 706.621 105.131 706.635 103.764C706.621 102.321 708.146 101.467 710.627 101.48C713.074 101.467 714.626 102.321 714.619 103.764C714.626 105.131 713.293 105.972 711.146 106.088V107.797H716.219V108.686H705.09ZM707.715 103.764C707.701 104.687 708.815 105.22 710.627 105.227C712.418 105.22 713.532 104.687 713.525 103.764C713.532 102.861 712.418 102.328 710.627 102.328C708.815 102.328 707.701 102.861 707.715 103.764Z" fill="#91979D"/>
<path d="M703.066 97.9668V106.963H701.986V102.287H699.115V104.885H693.605V98.7734H694.672V100.934H698.062V98.7734H699.115V101.385H701.986V97.9668H703.066ZM694.672 103.996H698.062V101.781H694.672V103.996ZM695.205 109.848V106.074H696.285V108.945H703.34V109.848H695.205Z" fill="#91979D"/>
<path d="M692.006 104.652V105.541H680.877V104.652H685.908V103.367H682.326V100.4H689.49V99.1426H682.285V98.2676H690.57V101.207H683.393V102.506H690.83V103.367H686.961V104.652H692.006ZM682.121 107.346V106.471H690.639V109.998H689.559V107.346H682.121Z" fill="#91979D"/>
<path d="M679.879 103.736V104.639H668.791V103.736H679.879ZM670.131 107.893C670.124 106.498 671.703 105.705 674.328 105.705C676.933 105.705 678.498 106.498 678.512 107.893C678.498 109.301 676.933 110.08 674.328 110.08C671.703 110.08 670.124 109.301 670.131 107.893ZM670.199 102.574V98.4453H678.498V99.3477H671.252V101.699H678.58V102.574H670.199ZM671.225 107.893C671.211 108.747 672.38 109.232 674.328 109.232C676.256 109.232 677.425 108.747 677.432 107.893C677.425 107.045 676.256 106.553 674.328 106.539C672.38 106.553 671.211 107.045 671.225 107.893Z" fill="#91979D"/>
<path d="M660.807 101.686C660.793 103.634 662.201 105.78 663.965 106.621L663.35 107.469C661.982 106.799 660.827 105.363 660.28 103.716C659.72 105.5 658.503 107.072 657.143 107.77L656.486 106.922C658.236 106.067 659.74 103.757 659.754 101.686V100.1H656.924V99.2109H663.541V100.1H660.807V101.686ZM665.031 110.107V97.9531H666.098V102.875H668.135V103.791H666.098V110.107H665.031Z" fill="#91979D"/>
<path d="M647.941 98.5273C649.568 98.5205 650.812 99.4707 651.045 100.865H653.588V97.9531H654.668V104.475H653.588V101.754H651.052C650.84 103.189 649.589 104.146 647.941 104.146C646.089 104.146 644.776 102.998 644.783 101.33C644.776 99.6826 646.089 98.5205 647.941 98.5273ZM645.809 101.33C645.809 102.438 646.69 103.237 647.941 103.244C649.165 103.237 650.047 102.438 650.047 101.33C650.047 100.209 649.165 99.4297 647.941 99.4434C646.69 99.4297 645.809 100.209 645.809 101.33ZM646.834 109.943V105.09H647.914V106.635H653.588V105.09H654.668V109.943H646.834ZM647.914 109.068H653.588V107.496H647.914V109.068Z" fill="#91979D"/>
<path d="M636.566 101.221C636.566 103.36 637.981 105.568 639.711 106.416L639.055 107.277C637.715 106.58 636.594 105.138 636.054 103.449C635.514 105.24 634.365 106.778 632.998 107.51L632.314 106.648C634.092 105.773 635.5 103.442 635.514 101.221V99.0059H636.566V101.221ZM640.832 110.107V97.9531H641.898V102.889H643.936V103.818H641.898V110.107H640.832Z" fill="#91979D"/>
<path d="M932.385 127.227C932.371 129.811 931.674 131.957 930.416 133.789H929.377C930.3 132.429 931.161 129.667 931.168 127.227C931.161 124.793 930.3 122.024 929.377 120.678H930.416C931.674 122.503 932.371 124.649 932.385 127.227Z" fill="#91979D"/>
<path d="M928.338 125.969V126.83H917.25V125.969H922.268V124.547H918.658V120.527H926.957V121.389H919.711V123.672H927.039V124.547H923.307V125.969H928.338ZM918.59 129.906C918.583 128.519 920.162 127.726 922.787 127.719C925.392 127.726 926.957 128.519 926.971 129.906C926.957 131.308 925.392 132.094 922.787 132.107C920.162 132.094 918.583 131.308 918.59 129.906ZM919.684 129.906C919.67 130.761 920.839 131.253 922.787 131.246C924.715 131.253 925.884 130.761 925.891 129.906C925.884 129.065 924.715 128.566 922.787 128.566C920.839 128.566 919.67 129.065 919.684 129.906Z" fill="#91979D"/>
<path d="M909.225 123.221C909.225 125.36 910.64 127.568 912.369 128.416L911.713 129.277C910.373 128.58 909.252 127.138 908.712 125.449C908.172 127.24 907.023 128.778 905.656 129.51L904.973 128.648C906.75 127.773 908.158 125.442 908.172 123.221V121.006H909.225V123.221ZM913.49 132.107V119.953H914.557V124.889H916.594V125.818H914.557V132.107H913.49Z" fill="#91979D"/>
<path d="M903.086 119.967V128.881H902.02V119.967H903.086ZM893.174 126.283C895.013 125.565 896.264 123.788 896.264 121.867V120.65H897.357V121.867C897.344 123.72 898.608 125.381 900.42 126.037L899.859 126.898C898.451 126.358 897.357 125.265 896.817 123.863C896.291 125.354 895.184 126.55 893.762 127.117L893.174 126.283ZM895.238 131.848V128.061H896.305V130.945H903.469V131.848H895.238Z" fill="#91979D"/>
<path d="M889.031 127.227C889.045 124.649 889.742 122.503 891 120.678H892.039C891.116 122.024 890.255 124.793 890.248 127.227C890.255 129.667 891.116 132.429 892.039 133.789H891C889.742 131.957 889.045 129.811 889.031 127.227Z" fill="#91979D"/>
<path d="M886.68 121.758V122.646H876.727V121.758H881.184V120.158H882.236V121.758H886.68ZM876.18 130.686V129.797H881.184V128.088C879.017 127.972 877.711 127.131 877.725 125.764C877.711 124.321 879.235 123.467 881.717 123.48C884.164 123.467 885.716 124.321 885.709 125.764C885.716 127.131 884.383 127.972 882.236 128.088V129.797H887.309V130.686H876.18ZM878.805 125.764C878.791 126.687 879.905 127.22 881.717 127.227C883.508 127.22 884.622 126.687 884.615 125.764C884.622 124.861 883.508 124.328 881.717 124.328C879.905 124.328 878.791 124.861 878.805 125.764Z" fill="#91979D"/>
<path d="M873.979 121.102V131H872.734V122.387H872.68L870.273 123.986V122.742L872.734 121.102H873.979Z" fill="#91979D"/>
<path d="M865.379 131.137C863.185 131.137 861.913 129.291 861.92 126.051C861.913 122.838 863.198 120.965 865.379 120.965C867.553 120.965 868.838 122.838 868.838 126.051C868.838 129.291 867.573 131.137 865.379 131.137ZM863.109 126.051C863.116 128.614 863.943 130.043 865.379 130.043C866.808 130.043 867.642 128.614 867.635 126.051C867.642 123.487 866.801 122.038 865.379 122.031C863.957 122.038 863.116 123.487 863.109 126.051Z" fill="#91979D"/>
<path d="M857.012 131.137C855.228 131.137 853.874 130.036 853.799 128.512H854.988C855.077 129.394 855.938 130.05 857.012 130.057C858.297 130.05 859.227 129.113 859.227 127.869C859.227 126.584 858.263 125.634 856.93 125.627C856.096 125.613 855.446 125.873 855.084 126.516H853.895L854.592 121.102H859.951V122.195H855.617L855.248 125.094H855.344C855.788 124.752 856.451 124.52 857.148 124.52C859.035 124.52 860.423 125.914 860.43 127.842C860.423 129.756 858.987 131.137 857.012 131.137Z" fill="#91979D"/>
<path d="M848.809 126.133V127.021H837.734V126.133H848.809ZM838.377 124.506C840.653 124.294 842.581 123.371 842.677 122.018H838.883V121.143H842.738V119.926H843.791V121.143H847.688V122.018H843.859C843.948 123.371 845.883 124.294 848.152 124.506L847.824 125.34C845.814 125.128 844.01 124.403 843.271 123.18C842.526 124.403 840.729 125.128 838.719 125.34L838.377 124.506ZM839.074 130.07C839.067 128.765 840.626 128.061 843.271 128.061C845.903 128.061 847.441 128.765 847.455 130.07C847.441 131.376 845.903 132.08 843.271 132.08C840.626 132.08 839.067 131.376 839.074 130.07ZM840.168 130.07C840.154 130.836 841.303 131.26 843.271 131.246C845.22 131.26 846.368 130.836 846.375 130.07C846.368 129.305 845.22 128.874 843.271 128.867C841.303 128.874 840.154 129.305 840.168 130.07Z" fill="#91979D"/>
<path d="M833.045 131.137C831.261 131.137 829.907 130.036 829.832 128.512H831.021C831.11 129.394 831.972 130.05 833.045 130.057C834.33 130.05 835.26 129.113 835.26 127.869C835.26 126.584 834.296 125.634 832.963 125.627C832.129 125.613 831.479 125.873 831.117 126.516H829.928L830.625 121.102H835.984V122.195H831.65L831.281 125.094H831.377C831.821 124.752 832.484 124.52 833.182 124.52C835.068 124.52 836.456 125.914 836.463 127.842C836.456 129.756 835.021 131.137 833.045 131.137Z" fill="#91979D"/>
<path d="M824.281 130.084L823.215 133.803H822.203L822.955 130.084H824.281Z" fill="#91979D"/>
<path d="M817.814 131.137C815.846 131.137 814.431 130.084 814.369 128.512H815.613C815.682 129.455 816.618 130.043 817.801 130.043C819.106 130.043 820.05 129.339 820.057 128.307C820.05 127.227 819.188 126.468 817.65 126.461H816.844V125.381H817.65C818.854 125.381 819.694 124.704 819.688 123.686C819.694 122.694 818.97 122.038 817.842 122.031C816.782 122.038 815.818 122.619 815.764 123.59H814.574C814.636 122.018 816.099 120.965 817.855 120.965C819.742 120.965 820.891 122.202 820.877 123.617C820.891 124.745 820.234 125.565 819.195 125.859V125.928C820.487 126.126 821.267 127.049 821.26 128.307C821.267 129.934 819.79 131.137 817.814 131.137Z" fill="#91979D"/>
<path d="M807.219 131L811.758 122.264V122.195H806.521V121.102H813.029V122.25L808.504 131H807.219Z" fill="#91979D"/>
<path d="M800.889 119.953V126.174H799.822V119.953H800.889ZM791.059 125.531C794.107 124.854 795.885 123.398 796.076 121.443H791.674V120.555H797.252C797.245 123.658 795.051 125.593 791.455 126.434L791.059 125.531ZM792.986 127.609V126.748H800.889V129.688H794.08V131.137H801.326V131.998H793.014V128.867H799.822V127.609H792.986Z" fill="#91979D"/>
<path d="M788.652 121.102V131H787.408V122.387H787.354L784.947 123.986V122.742L787.408 121.102H788.652Z" fill="#91979D"/>
<path d="M783.744 129.701V130.604H772.615V129.701H777.619V127.404H774.01V123.658H781.283V121.744H773.982V120.855H782.336V124.533H775.076V126.516H782.623V127.404H778.672V129.701H783.744Z" fill="#91979D"/>
<path d="M770.906 119.953V132.107H769.881V125.736H768.09V131.479H767.105V120.227H768.09V124.848H769.881V119.953H770.906ZM760.967 129.1V121.443H765.52V122.332H762.033V128.184C763.708 128.177 764.863 128.115 766.217 127.842L766.312 128.744C764.85 129.045 763.612 129.093 761.746 129.1H760.967Z" fill="#91979D"/>
<path d="M752.504 122.25C752.497 123.925 753.762 125.47 755.553 126.092L755.006 126.953C753.625 126.447 752.552 125.422 752.012 124.137C751.499 125.586 750.398 126.7 748.963 127.254L748.375 126.393C750.228 125.743 751.444 124.096 751.451 122.209V120.705H752.504V122.25ZM750.33 131.848V128.074H751.424V130.945H758.479V131.848H750.33ZM756.852 128.936V119.953H757.918V123.686H759.75V124.602H757.918V128.936H756.852Z" fill="#91979D"/>
<path d="M746.133 125.654V126.529H742.373V129.674H747.445V130.576H736.316V129.674H741.32V126.529H737.738V120.951H746.01V121.826H738.818V125.654H746.133Z" fill="#91979D"/>
<path d="M730.314 120.746V121.812C730.314 122.961 730.314 124.226 729.966 125.969H731.777V126.857H726.76V132.135H725.68V126.857H720.703V125.969H728.879C729.248 124.219 729.248 122.947 729.248 121.812V121.635H722.098V120.746H730.314Z" fill="#91979D"/>
<path d="M718.105 119.967V122.756H719.951V123.658H718.105V126.83H717.039V119.967H718.105ZM709.191 125.9V120.582H710.271V124.998C712.008 124.991 713.792 124.854 715.754 124.451L715.891 125.354C713.826 125.771 711.987 125.894 710.162 125.9H709.191ZM710.408 131.943V127.5H718.105V131.943H710.408ZM711.461 131.068H717.066V128.348H711.461V131.068Z" fill="#91979D"/>
<path d="M706.006 119.953V123.125H707.838V124.014H706.006V127.254H704.939V119.953H706.006ZM696.518 126.393C699.45 125.545 701.323 123.856 701.542 121.744H697.051V120.855H702.697C702.69 123.952 700.51 126.222 696.969 127.268L696.518 126.393ZM698.186 129.729C698.179 128.272 699.744 127.384 702.164 127.391C704.604 127.384 706.143 128.272 706.143 129.729C706.143 131.205 704.604 132.08 702.164 132.08C699.744 132.08 698.179 131.205 698.186 129.729ZM699.252 129.729C699.238 130.645 700.38 131.226 702.164 131.219C703.948 131.226 705.104 130.645 705.104 129.729C705.104 128.812 703.948 128.245 702.164 128.252C700.38 128.245 699.238 128.812 699.252 129.729Z" fill="#91979D"/>
<path d="M685.211 123.221C685.204 125.442 686.715 127.671 688.506 128.484L687.85 129.332C686.462 128.662 685.266 127.22 684.685 125.49C684.124 127.322 682.928 128.86 681.506 129.578L680.822 128.676C682.634 127.849 684.131 125.524 684.145 123.221V121.006H685.211V123.221ZM689.832 132.135V119.953H690.912V132.135H689.832Z" fill="#91979D"/>
<path d="M678.854 119.953V126.311H677.787V124.752H674.916V125.818H669.406V120.527H670.473V122.277H673.863V120.527H674.916V121.703H677.787V119.953H678.854ZM670.473 124.943H673.863V123.125H670.473V124.943ZM670.979 127.76V126.898H678.854V129.756H672.072V131.082H679.318V131.943H671.006V128.936H677.787V127.76H670.979ZM674.916 123.904H677.787V122.537H674.916V123.904Z" fill="#91979D"/>
<path d="M667.766 126.393V127.254H656.678V126.393H667.766ZM657.922 129.305V128.443H666.33V132.107H665.236V129.305H657.922ZM658.154 125.217V120.281H666.385V121.143H659.234V122.305H666.057V123.139H659.234V124.383H666.453V125.217H658.154Z" fill="#91979D"/>
<path d="M650.129 120.104C652.829 120.104 654.415 120.855 654.422 122.209C654.415 123.576 652.829 124.321 650.129 124.328C647.415 124.321 645.822 123.576 645.822 122.209C645.822 120.855 647.415 120.104 650.129 120.104ZM644.592 125.996V125.135H655.666V125.996H650.648V127.145H654.244V129.865H647.025V131.123H654.613V131.971H645.959V129.072H653.191V127.965H645.932V127.145H649.582V125.996H644.592ZM646.943 122.209C646.93 123.043 648.112 123.494 650.129 123.508C652.146 123.494 653.321 123.043 653.328 122.209C653.321 121.409 652.146 120.938 650.129 120.924C648.112 120.938 646.93 121.409 646.943 122.209Z" fill="#91979D"/>
<path d="M636.771 123.221C636.765 125.422 638.18 127.637 639.943 128.443L639.301 129.318C637.92 128.607 636.778 127.158 636.238 125.429C635.698 127.247 634.557 128.806 633.176 129.537L632.479 128.676C634.263 127.801 635.671 125.463 635.678 123.221V121.006H636.771V123.221ZM638.617 124.984V124.109H641.502V119.953H642.568V132.135H641.502V124.984H638.617Z" fill="#91979D"/>
<path d="M835.916 142.965C837.618 142.985 839.512 144.011 839.512 147.654C839.512 151.175 838.069 153.137 835.752 153.137C834.009 153.137 832.785 152.07 832.539 150.498H833.756C833.975 151.387 834.651 152.043 835.752 152.043C837.365 152.043 838.35 150.648 838.363 148.242H838.227C837.659 149.063 836.75 149.555 835.697 149.555C833.927 149.555 832.457 148.194 832.457 146.287C832.457 144.441 833.811 142.944 835.916 142.965ZM833.66 146.273C833.653 147.497 834.583 148.475 835.875 148.475C837.167 148.475 838.172 147.408 838.172 146.246C838.172 145.111 837.222 144.045 835.916 144.045C834.624 144.045 833.646 145.05 833.66 146.273Z" fill="#91979D"/>
<path d="M827.494 153.137C825.71 153.137 824.356 152.036 824.281 150.512H825.471C825.56 151.394 826.421 152.05 827.494 152.057C828.779 152.05 829.709 151.113 829.709 149.869C829.709 148.584 828.745 147.634 827.412 147.627C826.578 147.613 825.929 147.873 825.566 148.516H824.377L825.074 143.102H830.434V144.195H826.1L825.73 147.094H825.826C826.271 146.752 826.934 146.52 827.631 146.52C829.518 146.52 830.905 147.914 830.912 149.842C830.905 151.756 829.47 153.137 827.494 153.137Z" fill="#91979D"/>
<path d="M819.127 153.137C817.411 153.116 815.518 152.098 815.518 148.434C815.518 144.927 816.953 142.965 819.277 142.965C821.021 142.965 822.237 144.038 822.49 145.59H821.273C821.048 144.715 820.378 144.059 819.277 144.059C817.65 144.059 816.673 145.446 816.68 147.832H816.803C817.37 147.005 818.279 146.52 819.346 146.52C821.103 146.52 822.572 147.887 822.572 149.801C822.572 151.667 821.212 153.157 819.127 153.137ZM816.844 149.828C816.851 150.99 817.801 152.05 819.127 152.057C820.405 152.05 821.376 151.045 821.383 149.814C821.376 148.598 820.446 147.606 819.154 147.6C817.855 147.606 816.857 148.659 816.844 149.828Z" fill="#91979D"/>
<path d="M810.541 153.137C808.825 153.116 806.932 152.098 806.932 148.434C806.932 144.927 808.367 142.965 810.691 142.965C812.435 142.965 813.651 144.038 813.904 145.59H812.688C812.462 144.715 811.792 144.059 810.691 144.059C809.064 144.059 808.087 145.446 808.094 147.832H808.217C808.784 147.005 809.693 146.52 810.76 146.52C812.517 146.52 813.986 147.887 813.986 149.801C813.986 151.667 812.626 153.157 810.541 153.137ZM808.258 149.828C808.265 150.99 809.215 152.05 810.541 152.057C811.819 152.05 812.79 151.045 812.797 149.814C812.79 148.598 811.86 147.606 810.568 147.6C809.27 147.606 808.271 148.659 808.258 149.828Z" fill="#91979D"/>
<path d="M805.305 148.229V149.309H800.971V148.229H805.305Z" fill="#91979D"/>
<path d="M795.816 153.137C793.848 153.137 792.433 152.084 792.371 150.512H793.615C793.684 151.455 794.62 152.043 795.803 152.043C797.108 152.043 798.052 151.339 798.059 150.307C798.052 149.227 797.19 148.468 795.652 148.461H794.846V147.381H795.652C796.855 147.381 797.696 146.704 797.689 145.686C797.696 144.694 796.972 144.038 795.844 144.031C794.784 144.038 793.82 144.619 793.766 145.59H792.576C792.638 144.018 794.101 142.965 795.857 142.965C797.744 142.965 798.893 144.202 798.879 145.617C798.893 146.745 798.236 147.565 797.197 147.859V147.928C798.489 148.126 799.269 149.049 799.262 150.307C799.269 151.934 797.792 153.137 795.816 153.137Z" fill="#91979D"/>
<path d="M783.416 150.977V149.965L787.873 143.102H789.391V149.896H790.771V150.977H789.391V153H788.215V150.977H783.416ZM784.742 149.896H788.215V144.66H788.092L784.742 149.814V149.896Z" fill="#91979D"/>
<path d="M774.68 150.977V149.965L779.137 143.102H780.654V149.896H782.035V150.977H780.654V153H779.479V150.977H774.68ZM776.006 149.896H779.479V144.66H779.355L776.006 149.814V149.896Z" fill="#91979D"/>
<path d="M769.703 153.137C767.734 153.137 766.319 152.084 766.258 150.512H767.502C767.57 151.455 768.507 152.043 769.689 152.043C770.995 152.043 771.938 151.339 771.945 150.307C771.938 149.227 771.077 148.468 769.539 148.461H768.732V147.381H769.539C770.742 147.381 771.583 146.704 771.576 145.686C771.583 144.694 770.858 144.038 769.73 144.031C768.671 144.038 767.707 144.619 767.652 145.59H766.463C766.524 144.018 767.987 142.965 769.744 142.965C771.631 142.965 772.779 144.202 772.766 145.617C772.779 146.745 772.123 147.565 771.084 147.859V147.928C772.376 148.126 773.155 149.049 773.148 150.307C773.155 151.934 771.679 153.137 769.703 153.137Z" fill="#91979D"/>
<path d="M764.645 148.229V149.309H760.311V148.229H764.645Z" fill="#91979D"/>
<path d="M752.162 153L752.148 152.098L755.525 148.543C756.694 147.299 757.255 146.629 757.262 145.713C757.255 144.694 756.407 144.038 755.293 144.031C754.11 144.038 753.372 144.783 753.365 145.891H752.203C752.189 144.141 753.543 142.965 755.334 142.965C757.132 142.965 758.403 144.175 758.41 145.713C758.403 146.82 757.891 147.682 756.141 149.486L753.871 151.824V151.906H758.588V153H752.162Z" fill="#91979D"/>
<path d="M747.062 153.137C744.868 153.137 743.597 151.291 743.604 148.051C743.597 144.838 744.882 142.965 747.062 142.965C749.236 142.965 750.521 144.838 750.521 148.051C750.521 151.291 749.257 153.137 747.062 153.137ZM744.793 148.051C744.8 150.614 745.627 152.043 747.062 152.043C748.491 152.043 749.325 150.614 749.318 148.051C749.325 145.487 748.484 144.038 747.062 144.031C745.641 144.038 744.8 145.487 744.793 148.051Z" fill="#91979D"/>
<path d="M737.602 153.082C737.123 153.075 736.713 152.679 736.727 152.193C736.713 151.715 737.123 151.318 737.602 151.318C738.087 151.318 738.483 151.715 738.477 152.193C738.483 152.679 738.087 153.075 737.602 153.082ZM736.727 146.697C736.713 146.219 737.123 145.822 737.602 145.822C738.087 145.822 738.483 146.219 738.477 146.697C738.483 147.183 738.087 147.579 737.602 147.586C737.123 147.579 736.713 147.183 736.727 146.697Z" fill="#91979D"/>
<path d="M731.203 143.758V144.646H721.25V143.758H725.707V142.158H726.76V143.758H731.203ZM720.703 152.686V151.797H725.707V150.088C723.54 149.972 722.234 149.131 722.248 147.764C722.234 146.321 723.759 145.467 726.24 145.48C728.688 145.467 730.239 146.321 730.232 147.764C730.239 149.131 728.906 149.972 726.76 150.088V151.797H731.832V152.686H720.703ZM723.328 147.764C723.314 148.687 724.429 149.22 726.24 149.227C728.031 149.22 729.146 148.687 729.139 147.764C729.146 146.861 728.031 146.328 726.24 146.328C724.429 146.328 723.314 146.861 723.328 147.764Z" fill="#91979D"/>
<path d="M718.68 141.967V150.963H717.6V146.287H714.729V148.885H709.219V142.773H710.285V144.934H713.676V142.773H714.729V145.385H717.6V141.967H718.68ZM710.285 147.996H713.676V145.781H710.285V147.996ZM710.818 153.848V150.074H711.898V152.945H718.953V153.848H710.818Z" fill="#91979D"/>
<path d="M705.938 141.953V147.135H707.879V148.037H705.938V154.107H704.857V141.953H705.938ZM696.354 150.867C697.345 150.867 698.5 150.86 699.703 150.826V149.486C698.288 149.322 697.365 148.488 697.379 147.285C697.365 145.911 698.527 145.022 700.25 145.029C701.945 145.022 703.128 145.911 703.135 147.285C703.128 148.495 702.191 149.322 700.783 149.486V150.785C701.911 150.73 703.06 150.635 704.119 150.484L704.188 151.305C701.535 151.756 698.664 151.783 696.531 151.783L696.354 150.867ZM696.572 144.318V143.443H699.703V141.98H700.783V143.443H703.9V144.318H696.572ZM698.377 147.285C698.384 148.126 699.122 148.68 700.25 148.666C701.357 148.68 702.103 148.126 702.109 147.285C702.103 146.438 701.357 145.863 700.25 145.863C699.122 145.863 698.384 146.438 698.377 147.285Z" fill="#91979D"/>
<path d="M694.48 141.967V150.881H693.4V146.219H690.898V145.33H693.4V141.967H694.48ZM684.459 148.447C686.25 147.818 687.549 146.212 687.549 144.469V143.84H684.801V142.951H691.35V143.84H688.629V144.469C688.629 146.041 689.846 147.565 691.623 148.174L691.062 149.035C689.695 148.536 688.636 147.518 688.109 146.26C687.583 147.668 686.462 148.782 685.02 149.322L684.459 148.447ZM686.674 153.848V150.074H687.754V152.945H694.822V153.848H686.674Z" fill="#91979D"/>
<path d="M678.293 141.953V144.934H680.125V145.836H678.293V148.857H677.227V141.953H678.293ZM669.365 148.133V142.787H674.752V143.662H670.432V147.244C672.872 147.258 674.26 147.162 675.887 146.848L676.023 147.723C674.314 148.071 672.865 148.14 670.309 148.133H669.365ZM670.623 153.943V149.486H678.293V153.943H670.623ZM671.676 153.068H677.227V150.361H671.676V153.068Z" fill="#91979D"/>
<path d="M660.752 143.922C660.752 145.576 662.01 147.094 663.773 147.695L663.186 148.543C661.846 148.051 660.786 147.046 660.253 145.774C659.733 147.217 658.646 148.331 657.225 148.885L656.65 148.023C658.469 147.347 659.692 145.72 659.699 143.84V142.582H660.752V143.922ZM658.264 151.865C658.271 150.478 659.795 149.664 662.297 149.664C664.792 149.664 666.303 150.478 666.303 151.865C666.303 153.28 664.792 154.08 662.297 154.08C659.795 154.08 658.271 153.28 658.264 151.865ZM659.344 151.865C659.33 152.727 660.465 153.226 662.297 153.232C664.136 153.226 665.257 152.727 665.264 151.865C665.257 151.038 664.136 150.525 662.297 150.525C660.465 150.525 659.33 151.038 659.344 151.865ZM665.127 149.35V141.953H666.193V145.125H668.025V146.027H666.193V149.35H665.127Z" fill="#91979D"/>
<path d="M654.914 141.967V149.131H653.889V145.918H652.234V149.049H651.209V142.199H652.234V145.029H653.889V141.967H654.914ZM644.66 148.461C647.183 147.436 648.611 145.788 648.816 143.744H645.152V142.855H649.924C649.917 145.761 648.276 147.955 645.193 149.268L644.66 148.461ZM646.711 150.566V149.691H654.914V154.107H653.861V150.566H646.711Z" fill="#91979D"/>
<path d="M642.24 143.184V144.4C642.227 145.891 642.227 147.559 641.789 150.006L640.695 149.883C641.153 147.559 641.153 145.856 641.16 144.4V144.072H633.668V143.184H642.24ZM632.492 152.385V151.496H636.84V147.148H637.893V151.496H643.566V152.385H632.492Z" fill="#91979D"/>
<path d="M787.709 175V167.576H788.844V168.711H788.926C789.192 167.959 789.965 167.46 790.84 167.453C791.018 167.46 791.318 167.467 791.455 167.48V168.67C791.366 168.649 791.052 168.588 790.744 168.588C789.678 168.588 788.885 169.326 788.885 170.324V175H787.709Z" fill="#91979D"/>
<path d="M780.477 175V165.102H781.652V170.857H781.789L785.002 167.576H786.451L783.32 170.755L786.684 175H785.193L782.438 171.5L781.652 172.231V175H780.477Z" fill="#91979D"/>
<path d="M777.756 175.082C777.277 175.075 776.867 174.679 776.881 174.193C776.867 173.715 777.277 173.318 777.756 173.318C778.241 173.318 778.638 173.715 778.631 174.193C778.638 174.679 778.241 175.075 777.756 175.082Z" fill="#91979D"/>
<path d="M772.301 175.15C770.154 175.157 768.828 173.626 768.828 171.35C768.828 169.066 770.175 167.48 772.191 167.48C773.75 167.48 775.397 168.438 775.391 171.186V171.678H770.004C770.065 173.25 770.981 174.111 772.301 174.111C773.189 174.111 773.75 173.722 774.023 173.264H775.281C774.933 174.392 773.832 175.157 772.301 175.15ZM770.011 170.68H774.201C774.194 169.442 773.415 168.52 772.191 168.52C770.906 168.52 770.093 169.531 770.011 170.68Z" fill="#91979D"/>
<path d="M767.748 167.576V168.561H766.189V172.867C766.183 173.817 766.661 173.975 767.16 173.975C767.372 173.975 767.687 173.954 767.857 173.947V175.041C767.673 175.068 767.386 175.096 767.037 175.096C766.046 175.096 765.007 174.48 765 173.168V168.561H763.879V167.576H765V165.799H766.189V167.576H767.748Z" fill="#91979D"/>
<path d="M759.6 175.15C757.576 175.157 756.209 173.626 756.209 171.322C756.209 169.005 757.576 167.48 759.6 167.48C761.616 167.48 762.97 169.005 762.963 171.322C762.97 173.626 761.616 175.157 759.6 175.15ZM757.385 171.322C757.392 172.806 758.089 174.111 759.6 174.111C761.097 174.111 761.787 172.806 761.787 171.322C761.787 169.846 761.097 168.52 759.6 168.52C758.089 168.52 757.392 169.846 757.385 171.322Z" fill="#91979D"/>
<path d="M752.189 175.15C750.084 175.157 748.799 173.551 748.799 171.322C748.799 169.066 750.146 167.48 752.162 167.48C753.741 167.48 754.931 168.417 755.115 169.818H753.939C753.769 169.142 753.181 168.52 752.189 168.52C750.863 168.52 749.981 169.613 749.975 171.281C749.981 172.997 750.843 174.098 752.189 174.098C753.064 174.098 753.734 173.626 753.939 172.812H755.115C754.931 174.139 753.837 175.157 752.189 175.15Z" fill="#91979D"/>
<path d="M741.307 172.895C741.307 171.192 742.811 170.803 744.096 170.707C744.574 170.673 745.771 170.604 746.105 170.598V169.996C746.105 169.053 745.545 168.506 744.424 168.506C743.487 168.506 742.92 168.937 742.756 169.504H741.525C741.676 168.308 742.838 167.48 744.479 167.48C745.449 167.48 747.274 167.768 747.268 170.105V175H746.105V173.988H746.051C745.805 174.487 745.128 175.171 743.836 175.178C742.428 175.171 741.307 174.344 741.307 172.895ZM742.482 172.949C742.489 173.735 743.139 174.132 744.041 174.125C745.367 174.132 746.105 173.243 746.105 172.307V171.562C745.757 171.582 744.588 171.671 744.232 171.691C743.166 171.76 742.489 172.136 742.482 172.949Z" fill="#91979D"/>
<path d="M734.238 173.701C732.864 173.694 731.873 172.594 731.873 170.816C731.873 169.053 732.885 167.952 734.252 167.945C735.236 167.952 735.64 168.581 735.811 168.889H735.879V168.055H736.918V172.047C736.938 172.58 737.157 172.847 737.602 172.84C738.449 172.847 739.017 171.855 739.023 170.434C739.037 167.856 737.171 166.175 734.553 166.168C731.846 166.182 730.103 168.273 730.096 170.816C730.096 173.599 731.613 175.506 734.498 175.479C735.455 175.465 736.084 175.403 736.918 175.178V176.107C736.2 176.299 735.4 176.422 734.498 176.422C731.155 176.422 729.104 174.282 729.111 170.816C729.098 167.583 731.367 165.225 734.553 165.225C737.82 165.225 740.021 167.446 740.008 170.393C740.015 172.519 738.921 173.756 737.533 173.756C736.672 173.756 736.022 173.271 735.968 172.635H735.879C735.722 172.942 735.305 173.694 734.238 173.701ZM732.939 170.803C732.933 171.869 733.466 172.696 734.416 172.703C735.394 172.696 735.886 171.938 735.893 170.803C735.886 169.695 735.4 168.95 734.416 168.943C733.459 168.95 732.933 169.757 732.939 170.803Z" fill="#91979D"/>
<path d="M726.527 169.504C726.363 168.889 725.892 168.485 725.023 168.479C724.107 168.485 723.458 168.978 723.451 169.6C723.458 170.092 723.854 170.427 724.723 170.639L725.83 170.912C727.156 171.227 727.806 171.89 727.812 172.922C727.806 174.207 726.76 175.157 724.9 175.15C723.232 175.157 722.241 174.412 722.043 173.059H723.273C723.41 173.783 723.937 174.132 724.873 174.125C725.933 174.132 726.596 173.688 726.596 172.99C726.596 172.464 726.22 172.122 725.379 171.924L724.258 171.664C722.966 171.363 722.275 170.659 722.275 169.668C722.275 168.396 723.39 167.48 725.023 167.48C726.562 167.48 727.525 168.301 727.676 169.504H726.527Z" fill="#91979D"/>
<path d="M718.023 175.15C715.918 175.157 714.633 173.551 714.633 171.322C714.633 169.066 715.979 167.48 717.996 167.48C719.575 167.48 720.765 168.417 720.949 169.818H719.773C719.603 169.142 719.015 168.52 718.023 168.52C716.697 168.52 715.815 169.613 715.809 171.281C715.815 172.997 716.677 174.098 718.023 174.098C718.898 174.098 719.568 173.626 719.773 172.812H720.949C720.765 174.139 719.671 175.157 718.023 175.15Z" fill="#91979D"/>
<path d="M710.08 175.15C708.057 175.157 706.689 173.626 706.689 171.322C706.689 169.005 708.057 167.48 710.08 167.48C712.097 167.48 713.45 169.005 713.443 171.322C713.45 173.626 712.097 175.157 710.08 175.15ZM707.865 171.322C707.872 172.806 708.569 174.111 710.08 174.111C711.577 174.111 712.268 172.806 712.268 171.322C712.268 169.846 711.577 168.52 710.08 168.52C708.569 168.52 707.872 169.846 707.865 171.322Z" fill="#91979D"/>
<path d="M701.945 177.939C700.147 177.939 698.931 177.153 698.801 175.779H700.031C700.188 176.538 700.893 176.914 701.945 176.914C703.217 176.914 703.996 176.36 703.996 175.137V173.633H703.9C703.647 174.043 703.176 174.884 701.74 174.891C699.936 174.884 698.582 173.523 698.582 171.186C698.582 168.902 699.888 167.48 701.754 167.48C703.196 167.48 703.661 168.355 703.928 168.752H704.023V167.576H705.172V175.205C705.165 177.119 703.757 177.939 701.945 177.939ZM699.771 171.227C699.771 172.765 700.496 173.838 701.904 173.838C703.265 173.838 704.017 172.86 704.023 171.227C704.017 169.634 703.285 168.533 701.904 168.533C700.476 168.533 699.771 169.729 699.771 171.227Z" fill="#91979D"/>
<path d="M692.963 167.576L694.713 170.598L696.477 167.576H697.83L695.438 171.281L697.83 175H696.49L694.713 172.129L692.963 175H691.609L693.947 171.281L691.609 167.576H692.963Z" fill="#91979D"/>
<path d="M684.227 172.895C684.227 171.192 685.73 170.803 687.016 170.707C687.494 170.673 688.69 170.604 689.025 170.598V169.996C689.025 169.053 688.465 168.506 687.344 168.506C686.407 168.506 685.84 168.937 685.676 169.504H684.445C684.596 168.308 685.758 167.48 687.398 167.48C688.369 167.48 690.194 167.768 690.188 170.105V175H689.025V173.988H688.971C688.725 174.487 688.048 175.171 686.756 175.178C685.348 175.171 684.227 174.344 684.227 172.895ZM685.402 172.949C685.409 173.735 686.059 174.132 686.961 174.125C688.287 174.132 689.025 173.243 689.025 172.307V171.562C688.677 171.582 687.508 171.671 687.152 171.691C686.086 171.76 685.409 172.136 685.402 172.949Z" fill="#91979D"/>
<path d="M683.064 167.576V168.561H681.506V172.867C681.499 173.817 681.978 173.975 682.477 173.975C682.688 173.975 683.003 173.954 683.174 173.947V175.041C682.989 175.068 682.702 175.096 682.354 175.096C681.362 175.096 680.323 174.48 680.316 173.168V168.561H679.195V167.576H680.316V165.799H681.506V167.576H683.064Z" fill="#91979D"/>
<path d="M673.59 175.082C673.111 175.075 672.701 174.679 672.715 174.193C672.701 173.715 673.111 173.318 673.59 173.318C674.075 173.318 674.472 173.715 674.465 174.193C674.472 174.679 674.075 175.075 673.59 175.082ZM672.715 168.697C672.701 168.219 673.111 167.822 673.59 167.822C674.075 167.822 674.472 168.219 674.465 168.697C674.472 169.183 674.075 169.579 673.59 169.586C673.111 169.579 672.701 169.183 672.715 168.697Z" fill="#91979D"/>
<path d="M660.137 164.404C661.955 164.411 663.274 165.519 663.281 167.098C663.274 168.684 661.955 169.777 660.137 169.777C658.298 169.777 656.972 168.684 656.979 167.098C656.972 165.519 658.298 164.411 660.137 164.404ZM658.031 167.098C658.018 168.164 658.913 168.902 660.137 168.902C661.34 168.902 662.242 168.164 662.242 167.098C662.242 166.045 661.34 165.3 660.137 165.307C658.913 165.3 658.018 166.045 658.031 167.098ZM658.824 171.65V170.789H666.727V173.715H659.904V175.082H667.164V175.943H658.852V172.908H665.66V171.65H658.824ZM665.66 170.201V163.953H666.727V170.201H665.66Z" fill="#91979D"/>
<path d="M649.691 165.375V168.547H651.537V164.213H652.562V175.492H651.537V169.436H649.691V172.84H645.043V165.375H649.691ZM646.055 171.979H648.68V166.236H646.055V171.979ZM653.971 176.107V163.953H655.01V176.107H653.971Z" fill="#91979D"/>
<path d="M642.514 163.953V176.135H641.434V163.953H642.514ZM632.943 169.135C632.95 166.551 634.235 164.903 636.047 164.896C637.852 164.903 639.157 166.551 639.15 169.135C639.157 171.726 637.852 173.366 636.047 173.359C634.235 173.366 632.95 171.726 632.943 169.135ZM633.982 169.135C633.982 171.11 634.83 172.409 636.047 172.402C637.271 172.409 638.111 171.11 638.111 169.135C638.111 167.159 637.271 165.86 636.047 165.854C634.83 165.86 633.982 167.159 633.982 169.135Z" fill="#91979D"/>
<path d="M715.344 250.896V251.539C715.337 252.339 715.337 253.549 715.029 255.135L713.949 255.053C714.243 253.604 714.271 252.571 714.284 251.799H709.287V250.896H715.344ZM708.535 256.27C709.321 256.27 710.21 256.263 711.146 256.235V253.59H712.213V256.201C713.56 256.146 714.954 256.051 716.219 255.873L716.287 256.666C713.737 257.104 710.812 257.151 708.645 257.158L708.535 256.27ZM710.408 261.848V258.279H711.488V260.945H718.529V261.848H710.408ZM717.039 259.1V249.953H718.133V253.918H719.91V254.834H718.133V259.1H717.039Z" fill="#91979D"/>
<path d="M707.811 251.84V252.715H706.006V254.424H707.811V255.34H706.006V257.186H704.939V249.953H706.006V251.84H707.811ZM696.736 253.549C696.729 251.86 698.083 250.685 699.922 250.691C701.774 250.685 703.107 251.86 703.121 253.549C703.107 255.258 701.774 256.427 699.922 256.434C698.083 256.427 696.729 255.258 696.736 253.549ZM697.789 253.549C697.782 254.718 698.691 255.518 699.922 255.504C701.166 255.518 702.062 254.718 702.068 253.549C702.062 252.407 701.166 251.614 699.922 251.607C698.691 251.614 697.782 252.407 697.789 253.549ZM698.049 258.635V257.746H706.006V262.107H704.939V258.635H698.049Z" fill="#91979D"/>
<path d="M695.479 255.969V256.857H684.404V255.969H687.152V254.253C686.182 253.877 685.635 253.262 685.635 252.441C685.635 251.013 687.275 250.192 689.941 250.186C692.587 250.192 694.228 251.013 694.234 252.441C694.228 253.255 693.688 253.87 692.73 254.253V255.969H695.479ZM685.744 259.934C685.737 258.546 687.303 257.78 689.941 257.787C692.546 257.78 694.111 258.546 694.125 259.934C694.111 261.321 692.546 262.08 689.941 262.08C687.303 262.08 685.737 261.321 685.744 259.934ZM686.742 252.441C686.735 253.33 687.952 253.843 689.941 253.85C691.91 253.843 693.134 253.33 693.141 252.441C693.134 251.566 691.91 251.033 689.941 251.033C687.952 251.033 686.735 251.566 686.742 252.441ZM686.838 259.934C686.824 260.761 687.993 261.253 689.941 261.246C691.869 261.253 693.038 260.761 693.045 259.934C693.038 259.106 691.869 258.621 689.941 258.607C687.993 258.621 686.824 259.106 686.838 259.934ZM688.219 255.969H691.664V254.54C691.151 254.636 690.577 254.684 689.941 254.684C689.306 254.684 688.731 254.636 688.219 254.547V255.969Z" fill="#91979D"/>
<path d="M682.326 249.953V262.135H681.246V249.953H682.326ZM672.756 255.135C672.763 252.551 674.048 250.903 675.859 250.896C677.664 250.903 678.97 252.551 678.963 255.135C678.97 257.726 677.664 259.366 675.859 259.359C674.048 259.366 672.763 257.726 672.756 255.135ZM673.795 255.135C673.795 257.11 674.643 258.409 675.859 258.402C677.083 258.409 677.924 257.11 677.924 255.135C677.924 253.159 677.083 251.86 675.859 251.854C674.643 251.86 673.795 253.159 673.795 255.135Z" fill="#91979D"/>
<path d="M662.748 251.744C662.755 253.829 665.134 255.682 667.246 256.078L666.754 256.98C664.915 256.557 662.987 255.251 662.201 253.467C661.408 255.251 659.487 256.55 657.648 256.98L657.156 256.078C659.262 255.675 661.62 253.836 661.627 251.744V250.814H662.748V251.744ZM656.691 260.453V259.564H667.82V260.453H656.691Z" fill="#91979D"/>
<path d="M654.613 249.953V262.135H653.533V249.953H654.613ZM645.303 259.195V250.992H646.369V254.205H649.992V250.992H651.045V259.195H645.303ZM646.369 258.293H649.992V255.066H646.369V258.293Z" fill="#91979D"/>
<path d="M636.771 253.221C636.765 255.422 638.18 257.637 639.943 258.443L639.301 259.318C637.92 258.607 636.778 257.158 636.238 255.429C635.698 257.247 634.557 258.806 633.176 259.537L632.479 258.676C634.263 257.801 635.671 255.463 635.678 253.221V251.006H636.771V253.221ZM638.617 254.984V254.109H641.502V249.953H642.568V262.135H641.502V254.984H638.617Z" fill="#91979D"/>
<path d="M772.578 218.391V219.172C772.562 220.109 772.562 221.5 772.219 223.312L770.75 223.172C771.055 221.625 771.102 220.492 771.117 219.609H765.516V218.391H772.578ZM764.672 224.516C765.531 224.516 766.508 224.508 767.531 224.484V221.531H769V224.438C770.5 224.375 772.047 224.266 773.453 224.062L773.547 225.141C770.625 225.656 767.281 225.711 764.812 225.719L764.672 224.516ZM766.797 231.031V226.891H768.281V229.828H776.312V231.031H766.797ZM774.344 227.844V217.328H775.859V221.781H777.781V223.031H775.859V227.844H774.344Z" fill="#141618"/>
<path d="M763.937 219.375V220.594H761.953V222.375H763.937V223.625H761.953V225.625H760.469V217.328H761.953V219.375H763.937ZM751.172 221.484C751.156 219.523 752.75 218.141 754.891 218.141C757.039 218.141 758.609 219.523 758.625 221.484C758.609 223.461 757.039 224.828 754.891 224.828C752.75 224.828 751.156 223.461 751.172 221.484ZM752.625 221.484C752.609 222.742 753.578 223.578 754.891 223.562C756.203 223.578 757.164 222.742 757.172 221.484C757.164 220.234 756.203 219.414 754.891 219.406C753.578 219.414 752.609 220.234 752.625 221.484ZM752.703 227.453V226.25H761.953V231.328H760.469V227.453H752.703Z" fill="#141618"/>
<path d="M740.266 217.859V219.516H746.75V217.859H748.234V223.516H744.234V224.891H749.891V226.109H737.125V224.891H742.766V223.516H738.797V217.859H740.266ZM738.734 231.031V227.109H740.234V229.828H748.453V231.031H738.734ZM740.266 222.312H746.75V220.672H740.266V222.312Z" fill="#141618"/>
<path d="M734.938 217.328V231.328H733.438V217.328H734.938ZM723.438 227.578C727.156 225.805 728.977 223.281 729.266 220.016H724.109V218.828H730.766C730.766 222.93 729.023 226.477 724.219 228.781L723.438 227.578Z" fill="#141618"/>
<path d="M713.094 218.344V219.531H707.859V221.078H712.703V222.25H707.859V223.844C710.656 223.859 712.289 223.812 714.188 223.484L714.344 224.688C712.32 225.016 710.578 225.07 707.516 225.062H706.359V218.344H713.094ZM707.719 228.719C707.719 227.086 709.508 226.141 712.484 226.141C715.414 226.141 717.242 227.086 717.25 228.719C717.242 230.367 715.414 231.305 712.484 231.297C709.508 231.305 707.719 230.367 707.719 228.719ZM709.203 228.719C709.195 229.633 710.398 230.148 712.484 230.156C714.531 230.148 715.773 229.633 715.766 228.719C715.773 227.828 714.531 227.305 712.484 227.312C710.398 227.305 709.195 227.828 709.203 228.719ZM715.688 225.953V217.344H717.172V225.953H715.688Z" fill="#141618"/>
<path d="M703.406 217.328V224.531H701.922V220.938H698.969V219.734H701.922V217.328H703.406ZM691.688 223.406C693.875 222.711 695.18 220.969 695.188 219V217.781H696.656V219C696.656 220.781 697.938 222.438 700.047 223.109L699.266 224.266C697.727 223.734 696.562 222.68 695.945 221.344C695.336 222.852 694.141 224.023 692.484 224.594L691.688 223.406ZM694.25 226.359V225.188H703.406V228.672H695.734V229.969H703.891V231.156H694.281V227.547H701.938V226.359H694.25Z" fill="#141618"/>
<path d="M685.219 218.438C685.211 222.148 683.406 224.844 678.828 226.359L678.234 225.188C680.516 224.445 681.961 223.438 682.781 222.203L678.422 222.562L678.188 221.359L683.328 221.141C683.5 220.664 683.609 220.164 683.656 219.641H678.891V218.438H685.219ZM680.609 231.031V226.688H682.109V229.828H689.969V231.031H680.609ZM685.172 222.938V221.719H688.094V217.344H689.578V227.703H688.094V222.938H685.172Z" fill="#141618"/>
<path d="M665.906 218.984V220.172H662.094V222.75H665.281V223.906H662.094V226.844C663.922 226.82 665.117 226.75 666.562 226.484L666.688 227.688C665.078 228.016 663.75 228.039 661.578 228.047H660.672V218.984H665.906ZM666.016 223.781V222.578H667.906V217.625H669.312V230.625H667.906V223.781H666.016ZM670.766 231.328V217.328H672.203V231.328H670.766Z" fill="#141618"/>
<path d="M657.641 218.625V219.938C657.633 221.641 657.648 223.578 657.047 226.484L655.594 226.328C655.852 225.133 655.992 224.078 656.078 223.133L647.656 223.625L647.438 222.344L656.148 222C656.18 221.242 656.188 220.57 656.188 219.938V219.844H647.859V218.625H657.641ZM646.344 229.516V228.281H651.203V224.734H652.672V228.281H659.109V229.516H646.344Z" fill="#141618"/>
<path d="M636.266 218.375C638.359 218.383 639.852 220.289 639.859 223.281C639.852 226.305 638.359 228.211 636.266 228.203C634.172 228.211 632.68 226.305 632.688 223.281C632.68 220.289 634.172 218.383 636.266 218.375ZM634.109 223.281C634.102 225.508 634.992 226.875 636.266 226.875C637.562 226.875 638.438 225.508 638.438 223.281C638.438 221.086 637.562 219.711 636.266 219.703C634.992 219.711 634.102 221.086 634.109 223.281ZM641.938 231.328V217.328H643.422V222.812H645.672V224.062H643.422V231.328H641.938Z" fill="#141618"/>
<path d="M838.119 252.428C838.112 253.973 839.445 255.333 841.264 255.859L840.758 256.707C839.315 256.276 838.167 255.34 837.606 254.13C837.073 255.456 835.925 256.481 834.469 256.967L833.949 256.133C835.754 255.545 837.053 254.075 837.053 252.428V252.264H834.25V251.402H837.053V249.898H838.133V251.402H840.908V252.264H838.119V252.428ZM835.836 261.943V257.787H843.738V261.943H835.836ZM836.889 261.068H842.686V258.662H836.889V261.068ZM842.672 257.172V249.967H843.738V257.172H842.672Z" fill="#91979D"/>
<path d="M827.209 257.596C829.704 257.596 831.215 258.416 831.215 259.838C831.215 261.273 829.704 262.094 827.209 262.107C824.707 262.094 823.183 261.273 823.176 259.838C823.183 258.416 824.707 257.596 827.209 257.596ZM822.123 256.324V250.719H823.176V252.578H826.717V250.719H827.783V256.324H822.123ZM823.176 255.449H826.717V253.426H823.176V255.449ZM824.256 259.838C824.242 260.713 825.377 261.232 827.209 261.232C829.048 261.232 830.169 260.713 830.176 259.838C830.169 258.97 829.048 258.457 827.209 258.443C825.377 258.457 824.242 258.97 824.256 259.838ZM830.039 257.268V249.953H831.105V253.016H832.938V253.932H831.105V257.268H830.039Z" fill="#91979D"/>
<path d="M819.539 249.953V262.135H818.473V249.953H819.539ZM810.188 251.977V251.088H815.848V255.408H811.309V258.279C813.325 258.286 815.123 258.19 817.297 257.842L817.406 258.744C815.171 259.093 813.325 259.182 811.227 259.182H810.215V254.533H814.768V251.977H810.188Z" fill="#91979D"/>
<path d="M807.48 249.953V262.135H806.4V255.736H803.734V254.848H806.4V249.953H807.48ZM797.432 258.922C799.216 258.088 800.549 256.01 800.549 253.918V252.947H797.76V252.072H800.549V250.186H801.615V252.072H804.363V252.947H801.602V253.918C801.602 255.921 802.976 257.896 804.773 258.703L804.158 259.537C802.771 258.908 801.629 257.575 801.089 255.976C800.562 257.671 799.435 259.086 798.047 259.756L797.432 258.922Z" fill="#91979D"/>
<path d="M792.92 259.66V260.549H781.791V259.66H786.795V257.035H783.104V250.814H784.184V253.016H790.5V250.814H791.553V257.035H787.848V259.66H792.92ZM784.184 256.16H790.5V253.891H784.184V256.16Z" fill="#91979D"/>
<path d="M779.768 249.953V257.199H778.688V254.014H776.24V253.125H778.688V249.953H779.768ZM769.746 256.229C771.551 255.579 772.836 253.932 772.836 252.195V251.744H770.088V250.842H776.637V251.744H773.916V252.182C773.916 253.768 775.133 255.278 776.91 255.887L776.35 256.748C774.989 256.256 773.93 255.23 773.403 253.979C772.884 255.401 771.756 256.536 770.307 257.09L769.746 256.229ZM771.66 259.838C771.653 258.409 773.205 257.575 775.734 257.582C778.257 257.575 779.809 258.409 779.809 259.838C779.809 261.273 778.257 262.094 775.734 262.107C773.205 262.094 771.653 261.273 771.66 259.838ZM772.727 259.838C772.72 260.72 773.868 261.253 775.734 261.246C777.594 261.253 778.742 260.72 778.742 259.838C778.742 258.949 777.594 258.416 775.734 258.416C773.868 258.416 772.72 258.949 772.727 259.838Z" fill="#91979D"/>
<path d="M767.627 249.967V258.854H766.561V249.967H767.627ZM757.879 253.795C757.872 252.045 759.246 250.821 761.064 250.814C762.883 250.821 764.243 252.045 764.25 253.795C764.243 255.565 762.883 256.796 761.064 256.789C759.246 256.796 757.872 255.565 757.879 253.795ZM758.932 253.795C758.918 255.005 759.834 255.846 761.064 255.846C762.274 255.846 763.197 255.005 763.197 253.795C763.197 252.605 762.274 251.758 761.064 251.758C759.834 251.758 758.918 252.605 758.932 253.795ZM759.779 261.848V257.951H760.846V260.945H768.01V261.848H759.779Z" fill="#91979D"/>
<path d="M755.869 249.953V262.107H754.816V255.75H753.135V261.506H752.109V250.281H753.135V254.861H754.816V249.953H755.869ZM745.506 258.744C748.329 257.165 749.491 254.943 749.676 252.428H745.971V251.539H750.729C750.715 254.629 749.628 257.548 746.135 259.496L745.506 258.744Z" fill="#91979D"/>
</g>
<defs>
<clipPath id="clip0_978_748">
<rect width="1920" height="332" fill="white"/>
</clipPath>
</defs>
</svg>
